<svg width="150" height="141" viewBox="0 0 150 141" fill="none" xmlns="http://www.w3.org/2000/svg">
<path d="M23.7767 73.7124V65.8516H126.529V73.7124C124.548 79.0034 121.543 80.9948 115.861 84.3806C102.191 89.9875 93.0274 91.7723 74.3105 92.8029C58.1061 92.0843 49.3053 90.5291 34.445 84.3806C30.1674 82.427 27.586 80.1699 23.7767 73.7124Z" fill="#E5BD98" stroke="black" stroke-width="3"/>
<path d="M37.8138 72.5894V85.5036" stroke="black" stroke-width="1.5"/>
<path d="M52.4126 77.6426V89.4338" stroke="black" stroke-width="1.5"/>
<path d="M67.5728 79.8887V91.6799" stroke="black" stroke-width="1.5"/>
<path d="M82.7328 79.8887V91.6799" stroke="black" stroke-width="1.5"/>
<path d="M97.3315 76.52V88.8727" stroke="black" stroke-width="1.5"/>
<path d="M111.369 73.1509V84.9421" stroke="black" stroke-width="1.5"/>
<path d="M52.9492 22.6281C58.5008 17.3055 61.7424 17.8476 67.5811 20.3767C73.515 17.3922 76.8418 17.0286 82.7757 20.3767C88.4681 16.8701 91.6728 17.2507 97.4076 22.6281C103.447 19.9893 106.765 21.1758 112.602 26.5681C119.605 25.4523 121.981 27.5094 124.983 33.3224C131.58 33.06 133.778 34.7524 133.987 42.3282C138.927 46.9276 139.733 49.7751 133.987 55.8368C133.094 62.9016 130.982 65.0875 124.983 66.5311C121.76 72.0541 118.762 73.3466 111.477 72.7226C107.014 78.2063 104.059 79.5507 97.4076 76.6626C93.7496 81.405 90.7898 82.4536 82.7757 79.4769C76.8421 82.7258 73.515 82.9544 67.5811 79.4769C61.637 83.1163 58.4449 82.5365 52.9492 77.7883C45.716 79.5962 42.6973 78.0253 38.3174 72.7226C32.3563 74.0035 29.6618 72.6162 25.9366 66.5311C18.5231 64.885 16.0118 62.8301 16.3696 55.8368C10.697 51.4558 10.3919 48.8804 16.3696 44.0168C16.6875 36.681 18.6742 34.123 25.9366 33.3224C29.3383 26.2191 31.9657 24.4812 38.3174 26.5681C43.7281 21.2169 46.9364 20.4395 52.9492 22.6281Z" fill="#FFDEBF" stroke="black" stroke-width="3"/>
<path d="M128 49C128 54.9871 122.541 60.7425 112.921 65.0582C103.395 69.3313 90.1661 72 75.5 72C60.8339 72 47.6045 69.3313 38.0791 65.0582C28.4587 60.7425 23 54.9871 23 49C23 43.0129 28.4587 37.2575 38.0791 32.9418C47.6045 28.6687 60.8339 26 75.5 26C90.1661 26 103.395 28.6687 112.921 32.9418C122.541 37.2575 128 43.0129 128 49Z" fill="#FFE4E4" stroke="black" stroke-width="2"/>
<path d="M78.9663 48.9482C78.9663 47.5581 78.6456 43.7624 78.9663 44.0831C79.287 44.4038 106.072 41.9981 102.597 46.1681C99.1215 50.3382 78.9663 50.3382 78.9663 48.9482Z" fill="#DF2A2A" stroke="#DF2A2A" stroke-width="0.5"/>
<path d="M87.3064 34.353C83.8313 34.353 77.5763 41.9981 78.9663 44.7781C80.3563 47.5582 99.8165 48.2532 102.597 46.1682C105.377 44.0831 90.7814 34.353 87.3064 34.353Z" fill="#FC7979" stroke="#DF2A2A" stroke-width="0.5"/>
<path d="M99.1214 44.0834C93.9177 39.0952 90.5201 37.3488 83.1362 37.1333C81.7105 38.4163 81.1138 39.1795 80.3562 40.6083C87.6676 44.8372 91.7764 45.5733 99.1214 44.0834Z" fill="#FEA8A8"/>
<path d="M45.7697 38.214C51.1849 37.5043 56.1804 40.6857 57.0563 45.1544C57.9323 49.6231 54.4032 53.9218 48.988 54.6315C43.5727 55.3413 38.5773 52.1599 37.7013 47.6912C36.8253 43.2225 40.3544 38.9238 45.7697 38.214Z" fill="#93DF64" stroke="#7CC251"/>
<ellipse cx="48.5853" cy="46.2146" rx="4.2095" ry="3.91354" transform="rotate(-129.426 48.5853 46.2146)" fill="#C2FF9C"/>
<line y1="-0.25" x2="2.53921" y2="-0.25" transform="matrix(-0.981112 0.193442 -0.250286 -0.968172 43.6527 46.3774)" stroke="#2F6C09" stroke-width="0.5"/>
<path d="M44.7485 48.5902L43.8848 49.3003" stroke="#2F6C09" stroke-width="0.5"/>
<path d="M45.8943 49.984L44.9806 51.5137" stroke="#2F6C09" stroke-width="0.5"/>
<path d="M47.4718 51.0222L47.4219 51.8418" stroke="#2F6C09" stroke-width="0.5"/>
<path d="M49.5311 50.8862L50.245 52.6348" stroke="#2F6C09" stroke-width="0.5"/>
<path d="M51.2087 50.2855L51.5906 50.75" stroke="#2F6C09" stroke-width="0.5"/>
<path d="M52.5043 49.2207L54.0819 50.2592" stroke="#2F6C09" stroke-width="0.5"/>
<path d="M53.0361 47.2264L53.8498 47.3359" stroke="#2F6C09" stroke-width="0.5"/>
<path d="M52.754 45.1227L54.8134 44.9866" stroke="#2F6C09" stroke-width="0.5"/>
<path d="M52.0402 43.374L52.9039 42.6639" stroke="#2F6C09" stroke-width="0.5"/>
<path d="M50.4625 42.3354L50.9943 40.3412" stroke="#2F6C09" stroke-width="0.5"/>
<path d="M49.2668 41.7617L49.3168 40.9421" stroke="#2F6C09" stroke-width="0.5"/>
<path d="M47.6393 41.5425L47.3073 40.2584" stroke="#2F6C09" stroke-width="0.5"/>
<path d="M45.9619 42.1431L45.58 41.6785" stroke="#2F6C09" stroke-width="0.5"/>
<path d="M45.0981 42.8535L43.9524 41.46" stroke="#2F6C09" stroke-width="0.5"/>
<path d="M44.6163 44.0278L43.4206 43.4538" stroke="#2F6C09" stroke-width="0.5"/>
<path d="M43.7027 45.5575L41.6933 44.874" stroke="#2F6C09" stroke-width="0.5"/>
<path d="M70.6783 28.793L68.9132 36.7359L72.4434 41.1487L79.5038 40.2661L74.2085 37.6185L78.6213 34.0883L73.326 34.9708L70.6783 28.793Z" fill="#B2F887" stroke="#93DF64"/>
<path d="M46.8495 54.3868C45.9669 48.209 56.5575 28.7929 64.5005 33.2056C72.4434 37.6183 76.8562 50.8566 70.6783 54.3868C64.5005 57.917 47.732 60.5647 46.8495 54.3868Z" fill="#FA4040" stroke="#DF2A2A" stroke-width="1.5"/>
<path d="M69.7959 47.3267L68.0308 48.2092" stroke="#FFDEBF"/>
<path d="M57.44 43.7964L55.6749 45.5615" stroke="#FFDEBF"/>
<path d="M64.5005 46.4438L62.7354 48.2089" stroke="#FFDEBF"/>
<path d="M53.9099 50.8569L52.1448 52.622" stroke="#FFDEBF"/>
<path d="M59.2052 52.6216L57.4401 53.5041" stroke="#FFDEBF"/>
<path d="M61.8529 37.6187L60.0878 39.3838" stroke="#FFDEBF"/>
<path d="M66.2656 42.0312L64.5005 42.9138" stroke="#FFDEBF"/>
<path d="M86.6082 50.3386C86.6082 53.4688 83.7712 56.0936 80.1581 56.0936C76.5449 56.0936 73.708 53.4688 73.708 50.3386C73.708 47.2084 76.5449 44.5835 80.1581 44.5835C83.7712 44.5835 86.6082 47.2084 86.6082 50.3386Z" fill="#5C7BCD" stroke="#506EBA"/>
<path d="M78.0731 46.8638L81.5482 48.2538" stroke="#506EBA" stroke-width="0.5"/>
<path d="M78.0731 48.2538L81.5482 46.8638" stroke="#506EBA" stroke-width="0.5"/>
<path d="M79.6581 55.8986C79.6581 59.0288 76.8211 61.6537 73.208 61.6537C69.5949 61.6537 66.7579 59.0288 66.7579 55.8986C66.7579 52.7684 69.5949 50.1436 73.208 50.1436C76.8211 50.1436 79.6581 52.7684 79.6581 55.8986Z" fill="#5C7BCD" stroke="#506EBA"/>
<path d="M71.123 52.4238L74.5981 53.8138" stroke="#506EBA" stroke-width="0.5"/>
<path d="M71.123 53.8138L74.5981 52.4238" stroke="#506EBA" stroke-width="0.5"/>
<path d="M110.435 58.1745C106.068 61.4538 100.154 61.138 97.195 57.6766C94.2361 54.2152 95.1971 48.7371 99.5645 45.4578C103.932 42.1784 109.846 42.4943 112.805 45.9556C115.764 49.417 114.803 54.8951 110.435 58.1745Z" fill="#93DF64" stroke="#7CC251"/>
<ellipse cx="104.052" cy="52.5907" rx="4.2095" ry="3.91354" transform="rotate(21.1397 104.052 52.5907)" fill="#C2FF9C"/>
<line y1="-0.25" x2="2.53921" y2="-0.25" transform="matrix(0.759403 -0.650621 0.693768 0.720198 108.267 50.0249)" stroke="#2F6C09" stroke-width="0.5"/>
<path d="M106.226 48.6362L106.629 47.5933" stroke="#2F6C09" stroke-width="0.5"/>
<path d="M104.543 47.9853L104.587 46.2041" stroke="#2F6C09" stroke-width="0.5"/>
<path d="M102.659 47.856L102.299 47.1177" stroke="#2F6C09" stroke-width="0.5"/>
<path d="M100.932 48.9865L99.4509 47.8145" stroke="#2F6C09" stroke-width="0.5"/>
<path d="M99.7662 50.3341L99.2053 50.1172" stroke="#2F6C09" stroke-width="0.5"/>
<path d="M99.1613 51.8987L97.277 51.7695" stroke="#2F6C09" stroke-width="0.5"/>
<path d="M99.6782 53.8966L98.9157 54.2011" stroke="#2F6C09" stroke-width="0.5"/>
<path d="M100.958 55.5905L99.2309 56.7211" stroke="#2F6C09" stroke-width="0.5"/>
<path d="M102.439 56.7622L102.035 57.8051" stroke="#2F6C09" stroke-width="0.5"/>
<path d="M104.323 56.8916L104.84 58.8897" stroke="#2F6C09" stroke-width="0.5"/>
<path d="M105.646 56.8037L106.006 57.542" stroke="#2F6C09" stroke-width="0.5"/>
<path d="M107.171 56.1948L108.092 57.15" stroke="#2F6C09" stroke-width="0.5"/>
<path d="M108.337 54.8472L108.898 55.064" stroke="#2F6C09" stroke-width="0.5"/>
<path d="M108.74 53.8042L110.423 54.4548" stroke="#2F6C09" stroke-width="0.5"/>
<path d="M108.583 52.5444L109.906 52.4567" stroke="#2F6C09" stroke-width="0.5"/>
<path d="M108.627 50.7631L110.713 50.3708" stroke="#2F6C09" stroke-width="0.5"/>
<circle cx="86.7405" cy="54.7116" r="1.98502" transform="rotate(9.89548 86.7405 54.7116)" fill="#2F1183" stroke="#220A66" stroke-width="0.2"/>
<circle cx="89.4791" cy="55.1897" r="1.98502" transform="rotate(9.89548 89.4791 55.1897)" fill="#2F1183" stroke="#220A66" stroke-width="0.2"/>
<circle cx="92.2178" cy="55.6672" r="1.98502" transform="rotate(9.89548 92.2178 55.6672)" fill="#2F1183" stroke="#220A66" stroke-width="0.2"/>
<circle cx="94.9564" cy="56.1452" r="1.98502" transform="rotate(9.89548 94.9564 56.1452)" fill="#2F1183" stroke="#220A66" stroke-width="0.2"/>
<circle cx="87.2183" cy="51.9734" r="1.98502" transform="rotate(9.89548 87.2183 51.9734)" fill="#2F1183" stroke="#220A66" stroke-width="0.2"/>
<circle cx="89.9569" cy="52.4509" r="1.98502" transform="rotate(9.89548 89.9569 52.4509)" fill="#2F1183" stroke="#220A66" stroke-width="0.2"/>
<circle cx="92.6956" cy="52.9284" r="1.98502" transform="rotate(9.89548 92.6956 52.9284)" fill="#2F1183" stroke="#220A66" stroke-width="0.2"/>
<circle cx="89.0653" cy="49.4734" r="1.98502" transform="rotate(9.89548 89.0653 49.4734)" fill="#2F1183" stroke="#220A66" stroke-width="0.2"/>
<circle cx="95.4342" cy="53.4065" r="1.98502" transform="rotate(9.89548 95.4342 53.4065)" fill="#2F1183" stroke="#220A66" stroke-width="0.2"/>
<circle cx="91.804" cy="49.9509" r="1.98502" transform="rotate(9.89548 91.804 49.9509)" fill="#2F1183" stroke="#220A66" stroke-width="0.2"/>
<circle cx="90.9124" cy="46.9734" r="1.98502" transform="rotate(9.89548 90.9124 46.9734)" fill="#2F1183" stroke="#220A66" stroke-width="0.2"/>
<circle cx="94.5426" cy="50.4289" r="1.98502" transform="rotate(9.89548 94.5426 50.4289)" fill="#2F1183" stroke="#220A66" stroke-width="0.2"/>
<circle cx="93.651" cy="47.4514" r="1.98502" transform="rotate(9.89548 93.651 47.4514)" fill="#2F1183" stroke="#220A66" stroke-width="0.2"/>
<circle cx="59.715" cy="59.4586" r="1.55728" transform="rotate(-0.969122 59.715 59.4586)" fill="#2F1183" stroke="#220A66" stroke-width="0.2"/>
<circle cx="61.9245" cy="59.4215" r="1.55728" transform="rotate(-0.969122 61.9245 59.4215)" fill="#2F1183" stroke="#220A66" stroke-width="0.2"/>
<circle cx="64.1338" cy="59.3839" r="1.55728" transform="rotate(-0.969122 64.1338 59.3839)" fill="#2F1183" stroke="#220A66" stroke-width="0.2"/>
<circle cx="66.3433" cy="59.3468" r="1.55728" transform="rotate(-0.969122 66.3433 59.3468)" fill="#2F1183" stroke="#220A66" stroke-width="0.2"/>
<circle cx="59.6776" cy="57.2496" r="1.55728" transform="rotate(-0.969122 59.6776 57.2496)" fill="#2F1183" stroke="#220A66" stroke-width="0.2"/>
<circle cx="61.8871" cy="57.212" r="1.55728" transform="rotate(-0.969122 61.8871 57.212)" fill="#2F1183" stroke="#220A66" stroke-width="0.2"/>
<circle cx="64.0963" cy="57.1749" r="1.55728" transform="rotate(-0.969122 64.0963 57.1749)" fill="#2F1183" stroke="#220A66" stroke-width="0.2"/>
<circle cx="60.745" cy="55.0216" r="1.55728" transform="rotate(-0.969122 60.745 55.0216)" fill="#2F1183" stroke="#220A66" stroke-width="0.2"/>
<circle cx="66.3058" cy="57.1373" r="1.55728" transform="rotate(-0.969122 66.3058 57.1373)" fill="#2F1183" stroke="#220A66" stroke-width="0.2"/>
<circle cx="62.9544" cy="54.984" r="1.55728" transform="rotate(-0.969122 62.9544 54.984)" fill="#2F1183" stroke="#220A66" stroke-width="0.2"/>
<circle cx="61.8123" cy="52.7931" r="1.55728" transform="rotate(-0.969122 61.8123 52.7931)" fill="#2F1183" stroke="#220A66" stroke-width="0.2"/>
<circle cx="65.1637" cy="54.9464" r="1.55728" transform="rotate(-0.969122 65.1637 54.9464)" fill="#2F1183" stroke="#220A66" stroke-width="0.2"/>
<circle cx="64.0216" cy="52.756" r="1.55728" transform="rotate(-0.969122 64.0216 52.756)" fill="#2F1183" stroke="#220A66" stroke-width="0.2"/>
<path d="M36.961 100.2C37.161 100.24 37.3144 100.313 37.421 100.42C37.541 100.527 37.601 100.687 37.601 100.9C37.601 101.113 37.541 101.287 37.421 101.42C37.301 101.553 37.1344 101.607 36.921 101.58C36.201 101.487 35.5677 101.42 35.021 101.38C34.4744 101.34 33.861 101.32 33.181 101.32C32.6477 101.32 31.8477 101.347 30.781 101.4C30.901 102.8 30.9677 104.4 30.981 106.2C31.4744 106.16 32.0477 106.14 32.701 106.14C34.061 106.14 35.1077 106.187 35.841 106.28C36.0544 106.307 36.2077 106.387 36.301 106.52C36.4077 106.653 36.461 106.813 36.461 107C36.461 107.187 36.4077 107.347 36.301 107.48C36.1944 107.6 36.021 107.653 35.781 107.64C34.821 107.573 33.7877 107.54 32.681 107.54C32.0677 107.54 31.501 107.56 30.981 107.6C30.981 109.827 30.9144 111.713 30.781 113.26C30.7544 113.447 30.6744 113.6 30.541 113.72C30.4077 113.827 30.2277 113.88 30.001 113.88C29.761 113.88 29.5677 113.82 29.421 113.7C29.2877 113.58 29.2277 113.427 29.241 113.24C29.3744 111.733 29.4477 109.9 29.461 107.74L28.581 107.86C28.3944 107.887 28.241 107.833 28.121 107.7C28.0144 107.567 27.961 107.393 27.961 107.18C27.961 106.753 28.181 106.513 28.621 106.46C29.0477 106.407 29.3277 106.373 29.461 106.36C29.4477 104.453 29.3677 102.827 29.221 101.48L28.661 101.5C28.3944 101.513 28.201 101.46 28.081 101.34C27.9744 101.22 27.921 101.04 27.921 100.8C27.921 100.6 27.9677 100.44 28.061 100.32C28.1677 100.2 28.3477 100.133 28.601 100.12L29.081 100.08L29.061 99.84C29.0477 99.6133 29.1077 99.4333 29.241 99.3C29.3877 99.1667 29.5877 99.1 29.841 99.1C30.3077 99.1 30.5677 99.3533 30.621 99.86L30.641 100C31.4544 99.96 32.2677 99.94 33.081 99.94C33.9477 99.94 34.7277 99.9667 35.421 100.02C36.1277 100.06 36.641 100.12 36.961 100.2ZM44.3329 103.72C45.1862 103.72 45.8529 103.993 46.3329 104.54C46.8129 105.073 47.0529 105.727 47.0529 106.5C47.0529 107.233 46.8329 107.813 46.3929 108.24C45.9529 108.653 45.3862 108.86 44.6929 108.86C44.4262 108.86 44.2329 108.82 44.1129 108.74C44.0062 108.66 43.9529 108.513 43.9529 108.3C43.9529 107.953 44.1196 107.773 44.4529 107.76C45.3196 107.68 45.7529 107.253 45.7529 106.48C45.7529 106.067 45.6396 105.713 45.4129 105.42C45.1862 105.127 44.8196 104.98 44.3129 104.98C43.7796 104.98 43.3129 105.207 42.9129 105.66C42.5262 106.113 42.2196 106.68 41.9929 107.36C41.7662 108.027 41.6329 108.687 41.5929 109.34C41.5129 110.567 41.4729 111.727 41.4729 112.82C41.4729 113.367 41.4196 113.727 41.3129 113.9C41.2196 114.073 41.0262 114.16 40.7329 114.16C40.4396 114.16 40.2329 114.093 40.1129 113.96C40.0062 113.813 39.9529 113.567 39.9529 113.22L39.9329 109.4C39.9329 108.52 39.8662 107.36 39.7329 105.92C39.6529 105.08 39.6062 104.48 39.5929 104.12C39.5796 103.907 39.6396 103.747 39.7729 103.64C39.9062 103.52 40.0929 103.46 40.3329 103.46C40.7462 103.46 40.9662 103.66 40.9929 104.06C41.0729 104.9 41.1196 105.72 41.1329 106.52C41.3596 105.64 41.7529 104.953 42.3129 104.46C42.8729 103.967 43.5462 103.72 44.3329 103.72ZM57.432 111.8C57.432 112.053 57.4586 112.267 57.512 112.44C57.5786 112.613 57.6586 112.78 57.752 112.94C57.8453 113.087 57.892 113.187 57.892 113.24C57.892 113.387 57.8186 113.527 57.672 113.66C57.5253 113.793 57.3853 113.86 57.252 113.86C56.9853 113.86 56.7453 113.693 56.532 113.36C56.332 113.027 56.232 112.707 56.232 112.4V112.12C55.952 112.733 55.5186 113.2 54.932 113.52C54.3586 113.84 53.6986 114 52.952 114C51.8186 114 50.972 113.613 50.412 112.84C49.852 112.067 49.572 110.94 49.572 109.46V104.52C49.572 104.347 49.6386 104.207 49.772 104.1C49.9186 103.993 50.0986 103.94 50.312 103.94C50.5386 103.94 50.7253 103.993 50.872 104.1C51.0186 104.207 51.092 104.347 51.092 104.52V109.5C51.092 110.62 51.252 111.44 51.572 111.96C51.892 112.48 52.4053 112.74 53.112 112.74C54.912 112.74 55.812 111.107 55.812 107.84V104.5C55.812 104.287 55.8786 104.12 56.012 104C56.1453 103.88 56.3253 103.82 56.552 103.82C56.792 103.82 56.9853 103.88 57.132 104C57.2786 104.12 57.352 104.287 57.352 104.5L57.432 111.8ZM62.5495 102.68C62.2028 102.68 61.9095 102.567 61.6695 102.34C61.4295 102.1 61.3095 101.8 61.3095 101.44C61.3095 101.08 61.4295 100.787 61.6695 100.56C61.9095 100.32 62.2161 100.2 62.5895 100.2C62.9495 100.2 63.2428 100.313 63.4695 100.54C63.7095 100.767 63.8295 101.06 63.8295 101.42C63.8295 101.78 63.7028 102.08 63.4495 102.32C63.2095 102.56 62.9095 102.68 62.5495 102.68ZM62.2495 113.88C62.0095 113.88 61.8161 113.82 61.6695 113.7C61.5361 113.58 61.4695 113.42 61.4695 113.22L61.6695 104.72C61.6695 104.493 61.7361 104.32 61.8695 104.2C62.0161 104.08 62.2095 104.02 62.4495 104.02C62.6895 104.02 62.8761 104.08 63.0095 104.2C63.1561 104.32 63.2295 104.5 63.2295 104.74L63.0295 113.22C63.0161 113.433 62.9361 113.6 62.7895 113.72C62.6561 113.827 62.4761 113.88 62.2495 113.88ZM72.4227 110.74C72.6627 110.74 72.8294 110.8 72.9227 110.92C73.0294 111.027 73.0827 111.227 73.0827 111.52C73.0827 112.213 72.8494 112.8 72.3827 113.28C71.9294 113.76 71.3427 114 70.6227 114C69.6227 114 68.9027 113.56 68.4627 112.68C68.0361 111.8 67.8227 110.433 67.8227 108.58C67.8227 107.887 67.8561 107.093 67.9227 106.2C67.7761 106.187 67.3627 106.153 66.6827 106.1C66.2827 106.06 66.0827 105.84 66.0827 105.44C66.0827 105.04 66.2761 104.84 66.6627 104.84C66.7694 104.84 66.9961 104.853 67.3427 104.88C67.6361 104.907 67.8627 104.92 68.0227 104.92C68.1161 103.933 68.2761 102.693 68.5027 101.2C68.5294 101 68.5961 100.853 68.7027 100.76C68.8227 100.653 69.0094 100.6 69.2627 100.6C69.5161 100.6 69.7161 100.667 69.8627 100.8C70.0094 100.933 70.0694 101.1 70.0427 101.3L69.9427 101.96C69.7427 103.507 69.6161 104.52 69.5627 105L71.1627 105.04C71.3627 105.04 71.5094 105.08 71.6027 105.16C71.7094 105.24 71.7627 105.38 71.7627 105.58C71.7627 105.833 71.7094 106.007 71.6027 106.1C71.5094 106.18 71.3227 106.227 71.0427 106.24C70.6294 106.253 70.0961 106.26 69.4427 106.26C69.3761 107.1 69.3427 107.873 69.3427 108.58C69.3427 109.873 69.4427 110.887 69.6427 111.62C69.8561 112.353 70.2361 112.72 70.7827 112.72C71.0761 112.72 71.3094 112.607 71.4827 112.38C71.6561 112.153 71.7561 111.813 71.7827 111.36C71.7961 111.147 71.8361 110.993 71.9027 110.9C71.9827 110.793 72.1561 110.74 72.4227 110.74ZM90.2576 100.22C90.7242 100.273 90.9576 100.513 90.9576 100.94C90.9576 101.18 90.8909 101.367 90.7576 101.5C90.6242 101.62 90.4376 101.673 90.1976 101.66C88.9842 101.567 87.8976 101.513 86.9376 101.5C86.8309 102.74 86.7442 104.533 86.6776 106.88L86.6576 107.3C86.5642 110.02 86.5176 112.04 86.5176 113.36C86.5176 113.667 86.4509 113.88 86.3176 114C86.1976 114.133 85.9909 114.2 85.6976 114.2C85.3909 114.2 85.1776 114.127 85.0576 113.98C84.9376 113.833 84.8776 113.567 84.8776 113.18C84.8776 112.767 84.8976 112.033 84.9376 110.98C84.9776 109.913 85.0109 109.08 85.0376 108.48L85.0976 107.32L85.3776 101.5C84.3509 101.527 83.2309 101.6 82.0176 101.72C81.7776 101.747 81.5842 101.7 81.4376 101.58C81.3042 101.447 81.2376 101.253 81.2376 101C81.2376 100.587 81.4376 100.36 81.8376 100.32C83.3042 100.16 84.7842 100.08 86.2776 100.08C88.1309 100.08 89.4576 100.127 90.2576 100.22ZM102.37 112.7C102.557 112.727 102.697 112.78 102.79 112.86C102.884 112.94 102.93 113.087 102.93 113.3C102.93 113.5 102.877 113.66 102.77 113.78C102.677 113.9 102.544 113.96 102.37 113.96C101.824 113.96 101.417 113.873 101.15 113.7C100.897 113.527 100.677 113.2 100.49 112.72C99.8904 113.693 98.8237 114.18 97.2904 114.18C96.2104 114.18 95.3371 113.94 94.6704 113.46C94.0037 112.98 93.5237 112.373 93.2304 111.64C92.9504 110.893 92.8104 110.107 92.8104 109.28C92.8104 108.387 92.9904 107.547 93.3504 106.76C93.7104 105.973 94.2371 105.34 94.9304 104.86C95.6371 104.38 96.4771 104.14 97.4504 104.14C98.1171 104.14 98.6971 104.273 99.1904 104.54C99.6837 104.807 100.07 105.18 100.35 105.66L100.43 105C100.457 104.507 100.684 104.26 101.11 104.26C101.377 104.26 101.577 104.327 101.71 104.46C101.857 104.58 101.917 104.727 101.89 104.9L101.83 105.4C101.737 105.96 101.67 106.54 101.63 107.14C101.59 107.647 101.57 108.327 101.57 109.18V110.56C101.57 111.133 101.584 111.56 101.61 111.84C101.65 112.107 101.724 112.313 101.83 112.46C101.937 112.607 102.117 112.687 102.37 112.7ZM100.05 110.54C100.064 109.913 100.07 109.107 100.07 108.12C100.07 107.467 99.9304 106.94 99.6504 106.54C99.3704 106.127 99.0304 105.833 98.6304 105.66C98.2304 105.487 97.8504 105.4 97.4904 105.4C96.7837 105.4 96.1904 105.6 95.7104 106C95.2437 106.4 94.8971 106.9 94.6704 107.5C94.4571 108.1 94.3504 108.693 94.3504 109.28C94.3504 110.213 94.5771 111.053 95.0304 111.8C95.4971 112.533 96.2571 112.9 97.3104 112.9C98.0971 112.9 98.7437 112.7 99.2504 112.3C99.7704 111.887 100.037 111.3 100.05 110.54ZM110.231 103.72C111.085 103.72 111.751 103.993 112.231 104.54C112.711 105.073 112.951 105.727 112.951 106.5C112.951 107.233 112.731 107.813 112.291 108.24C111.851 108.653 111.285 108.86 110.591 108.86C110.325 108.86 110.131 108.82 110.011 108.74C109.905 108.66 109.851 108.513 109.851 108.3C109.851 107.953 110.018 107.773 110.351 107.76C111.218 107.68 111.651 107.253 111.651 106.48C111.651 106.067 111.538 105.713 111.311 105.42C111.085 105.127 110.718 104.98 110.211 104.98C109.678 104.98 109.211 105.207 108.811 105.66C108.425 106.113 108.118 106.68 107.891 107.36C107.665 108.027 107.531 108.687 107.491 109.34C107.411 110.567 107.371 111.727 107.371 112.82C107.371 113.367 107.318 113.727 107.211 113.9C107.118 114.073 106.925 114.16 106.631 114.16C106.338 114.16 106.131 114.093 106.011 113.96C105.905 113.813 105.851 113.567 105.851 113.22L105.831 109.4C105.831 108.52 105.765 107.36 105.631 105.92C105.551 105.08 105.505 104.48 105.491 104.12C105.478 103.907 105.538 103.747 105.671 103.64C105.805 103.52 105.991 103.46 106.231 103.46C106.645 103.46 106.865 103.66 106.891 104.06C106.971 104.9 107.018 105.72 107.031 106.52C107.258 105.64 107.651 104.953 108.211 104.46C108.771 103.967 109.445 103.72 110.231 103.72ZM121.27 110.74C121.51 110.74 121.677 110.8 121.77 110.92C121.877 111.027 121.93 111.227 121.93 111.52C121.93 112.213 121.697 112.8 121.23 113.28C120.777 113.76 120.19 114 119.47 114C118.47 114 117.75 113.56 117.31 112.68C116.884 111.8 116.67 110.433 116.67 108.58C116.67 107.887 116.704 107.093 116.77 106.2C116.624 106.187 116.21 106.153 115.53 106.1C115.13 106.06 114.93 105.84 114.93 105.44C114.93 105.04 115.124 104.84 115.51 104.84C115.617 104.84 115.844 104.853 116.19 104.88C116.484 104.907 116.71 104.92 116.87 104.92C116.964 103.933 117.124 102.693 117.35 101.2C117.377 101 117.444 100.853 117.55 100.76C117.67 100.653 117.857 100.6 118.11 100.6C118.364 100.6 118.564 100.667 118.71 100.8C118.857 100.933 118.917 101.1 118.89 101.3L118.79 101.96C118.59 103.507 118.464 104.52 118.41 105L120.01 105.04C120.21 105.04 120.357 105.08 120.45 105.16C120.557 105.24 120.61 105.38 120.61 105.58C120.61 105.833 120.557 106.007 120.45 106.1C120.357 106.18 120.17 106.227 119.89 106.24C119.477 106.253 118.944 106.26 118.29 106.26C118.224 107.1 118.19 107.873 118.19 108.58C118.19 109.873 118.29 110.887 118.49 111.62C118.704 112.353 119.084 112.72 119.63 112.72C119.924 112.72 120.157 112.607 120.33 112.38C120.504 112.153 120.604 111.813 120.63 111.36C120.644 111.147 120.684 110.993 120.75 110.9C120.83 110.793 121.004 110.74 121.27 110.74Z" fill="#FC7979"/>
</svg>
