<svg width="90" height="90" viewBox="0 0 90 90" fill="none" xmlns="http://www.w3.org/2000/svg">
<circle cx="44.7223" cy="44.7223" r="44.7223" fill="#FEA8A8"/>
<g clip-path="url(#clip0_39_498)">
<path d="M72.8184 58.4336C65.0973 57.1631 61.6176 49.2543 61.4768 48.9186C61.466 48.8969 61.4588 48.8753 61.4443 48.8536C61.0509 48.0523 60.957 47.3917 61.1736 46.89C61.596 45.9009 63.2131 45.3884 64.2815 45.0491C64.592 44.9516 64.8843 44.8577 65.1262 44.7639C66.1802 44.3488 66.931 43.8976 67.4291 43.3886C68.0211 42.7786 68.1366 42.1938 68.1294 41.8148C68.1114 40.8907 67.4039 40.0677 66.2741 39.6671C65.895 39.5119 65.4583 39.4288 65.0179 39.4288C64.7183 39.4288 64.2707 39.4685 63.8484 39.6671C62.946 40.0894 62.1374 40.3204 61.4407 40.3529C61.0726 40.3349 60.8127 40.2554 60.643 40.1796C60.6647 39.8187 60.6863 39.4469 60.7116 39.0643L60.7224 38.8982C60.9715 34.989 61.2783 30.1268 59.986 27.239C59.1017 25.261 57.9141 23.5608 56.4522 22.1819C55.2285 21.0268 53.8063 20.0883 52.2253 19.3953C49.4784 18.1824 46.9155 18.002 45.6305 18.002H45.6269C45.5763 18.002 45.5294 18.002 45.4861 18.002C45.1287 18.0056 44.5476 18.0128 44.4934 18.0128C43.212 18.0128 40.6455 18.1933 37.8914 19.4061C36.314 20.0992 34.899 21.0341 33.6789 22.1891C32.2242 23.568 31.0403 25.2646 30.1595 27.2354C28.8673 30.1195 29.1741 34.9817 29.4195 38.8874V38.8946C29.4448 39.3133 29.4737 39.7501 29.4989 40.176C29.3112 40.2591 29.0044 40.3529 28.5532 40.3529C27.8241 40.3529 26.9578 40.1219 25.9795 39.6635C25.6908 39.5299 25.3623 39.4613 25.0013 39.4613C24.4202 39.4613 23.8029 39.631 23.2723 39.945C22.6009 40.3385 22.1677 40.8907 22.0486 41.508C21.9728 41.9123 21.9764 42.7172 22.8716 43.533C23.3661 43.9806 24.0881 44.3957 25.023 44.7639C25.2684 44.8614 25.5608 44.9516 25.8676 45.0491C26.9361 45.3884 28.5568 45.9009 28.9792 46.89C29.1921 47.3917 29.0983 48.0523 28.7048 48.8536C28.694 48.8753 28.6832 48.8969 28.6759 48.9186C28.5749 49.1496 27.6544 51.2252 25.7666 53.4162C24.6945 54.6616 23.5141 55.7048 22.258 56.5133C20.7239 57.5024 19.0671 58.1449 17.3308 58.43C16.6486 58.5419 16.1613 59.1484 16.201 59.8378C16.2118 60.0363 16.2587 60.2349 16.3418 60.4262V60.4298C16.6197 61.0759 17.2586 61.621 18.2982 62.1011C19.5688 62.6894 21.4675 63.1839 23.9473 63.5702C24.0736 63.8084 24.2036 64.404 24.2938 64.8119C24.3877 65.2451 24.4851 65.6927 24.6259 66.1655C24.7775 66.6781 25.1674 67.2917 26.1745 67.2917C26.5571 67.2917 26.9938 67.2051 27.5028 67.1076C28.2464 66.9633 29.2643 66.7647 30.5313 66.7647C31.2352 66.7647 31.9643 66.8261 32.6971 66.9488C34.1121 67.1834 35.3321 68.0425 36.7435 69.0388C38.8082 70.4971 41.1473 72.1467 44.7208 72.1467C44.8183 72.1467 44.9158 72.1431 45.0132 72.1359C45.1287 72.1431 45.2767 72.1467 45.4283 72.1467C49.0019 72.1467 51.3409 70.4971 53.4057 69.0424L53.4093 69.0388C54.8206 68.0461 56.0407 67.187 57.4557 66.9524C58.1884 66.8297 58.9176 66.7683 59.6215 66.7683C60.8343 66.7683 61.7945 66.9235 62.65 67.0896C63.2095 67.1979 63.6426 67.252 63.9783 67.252H64.0108H64.0433C64.7797 67.252 65.3211 66.8477 65.5269 66.1439C65.664 65.6782 65.7615 65.2451 65.8589 64.8011C65.942 64.4184 66.0791 63.8048 66.2019 63.5666C68.6817 63.1767 70.5804 62.6858 71.851 62.0974C72.8869 61.6174 73.5258 61.0723 73.8038 60.4298C73.8868 60.2385 73.9373 60.0399 73.9482 59.8342C73.9879 59.152 73.5006 58.5419 72.8184 58.4336Z" fill="white"/>
</g>
<defs>
<clipPath id="clip0_39_498">
<rect width="57.7517" height="57.7517" fill="white" transform="translate(16.1987 16.1985)"/>
</clipPath>
</defs>
</svg>
